<?xml version="1.0" encoding="UTF-8"?><svg id="Layer_1" xmlns="http://www.w3.org/2000/svg" viewBox="0 0 743.836 134.533"><defs><style>.cls-1,.cls-2{fill:#ce519e;}.cls-1,.cls-2,.cls-3{stroke-width:0px;}.cls-2{fill-rule:evenodd;}.cls-3{fill:#4800ba;}</style></defs><path class="cls-2" d="m27.096,45.24c-1.067-.612-2.41-.457-3.308.384l-5.76,5.383c-1.826,1.782-4.444,2.491-6.919,1.874l-7.688-1.743c-1.509-.342-3.009.605-3.351,2.114-.205.905.052,1.853.685,2.531l5.383,5.759c1.782,1.825,2.491,4.444,1.873,6.919l-1.743,7.689c-.342,1.509.604,3.009,2.113,3.351.905.205,1.854-.052,2.532-.685l5.76-5.384c1.826-1.782,4.444-2.49,6.919-1.873l7.689,1.743c1.509.342,3.009-.605,3.351-2.114.205-.905-.052-1.853-.685-2.531l-5.384-5.759c-1.781-1.826-2.49-4.444-1.873-6.919l1.743-7.689c.273-1.2-.27-2.437-1.337-3.05h0Zm27.522-25.803c-1.289,5.683.194,11.158,4.173,15.415l1.112,1.187-1.587-.359c-5.685-1.289-11.159.194-15.415,4.173l-1.189,1.11.359-1.587c1.289-5.683-.192-11.157-4.173-15.415l-1.11-1.189,1.585.361c5.685,1.289,11.158-.193,15.415-4.173l1.19-1.112-.36,1.589Zm3.195-11.908c1.131-1.056,2.903-.996,3.96.134.634.678.89,1.626.685,2.531l-2.375,10.48c-.878,3.87.091,7.449,2.802,10.348l7.339,7.852c1.056,1.131.995,2.904-.136,3.96-.678.633-1.625.89-2.53.685l-10.482-2.376c-3.87-.878-7.449.091-10.349,2.803l-7.851,7.338c-1.131,1.056-2.903.996-3.96-.134-.634-.678-.89-1.626-.685-2.531l2.376-10.48c.879-3.872-.09-7.451-2.8-10.349l-7.34-7.852c-1.056-1.131-.995-2.904.136-3.96.678-.633,1.625-.89,2.53-.685l10.483,2.377c3.87.878,7.449-.091,10.347-2.801l7.851-7.338h0Zm22.315,34.954c1.13-1.056,2.903-.997,3.96.134.634.678.891,1.627.685,2.532l-2.936,12.948c-1.118,4.936.169,9.687,3.624,13.385l9.066,9.699c1.056,1.131.995,2.904-.136,3.96-.678.633-1.625.89-2.53.685l-12.948-2.936c-4.935-1.12-9.687.168-13.384,3.622l-9.699,9.067c-1.13,1.056-2.903.997-3.96-.134-.634-.678-.891-1.627-.685-2.532l2.936-12.949c1.12-4.934-.168-9.688-3.622-13.382l-9.068-9.699c-1.056-1.131-.995-2.904.136-3.96.678-.633,1.625-.89,2.53-.685l12.949,2.937c4.934,1.116,9.687-.168,13.383-3.625l9.699-9.066ZM28.53,110.236l-.359,1.587,1.189-1.11c4.258-3.98,9.73-5.463,15.415-4.173l1.586.36-1.111-1.188c-3.982-4.258-5.462-9.732-4.173-15.415l.359-1.587-1.189,1.111c-4.257,3.98-9.732,5.462-15.415,4.173l-1.587-.36,1.111,1.188c3.979,4.257,5.462,9.731,4.173,15.415h0Zm-3.194,11.907c-1.13,1.056-2.903.997-3.96-.134-.634-.678-.891-1.627-.685-2.532l2.376-10.48c.878-3.87-.09-7.449-2.8-10.349l-7.34-7.851c-1.056-1.13-.997-2.903.134-3.96.678-.634,1.627-.891,2.532-.685l10.482,2.377c3.871.877,7.449-.092,10.348-2.803l7.851-7.338c1.13-1.056,2.903-.997,3.96.134.634.678.891,1.627.685,2.532l-2.376,10.48c-.878,3.871.091,7.45,2.801,10.349l7.338,7.85c1.056,1.13.997,2.903-.134,3.96-.678.634-1.627.891-2.532.685l-10.48-2.376c-3.871-.877-7.45.091-10.349,2.802l-7.851,7.338Z"/><path class="cls-3" d="m204.35,129.673h-91.763V0h50.547v88.846h41.216v40.827Z"/><path class="cls-3" d="m331.883,85.93c0,18.08-3.11,27.995-10.498,34.994-9.915,8.943-26.246,13.609-47.631,13.609-23.718,0-41.215-5.833-50.547-16.525-5.25-6.027-7.777-16.525-7.777-32.078V20.802h48.409v70.377c0,10.499,2.527,14.192,9.915,14.192,7.193,0,9.721-3.693,9.721-14.192V20.802h48.409v65.128Z"/><path class="cls-3" d="m395.065,39.077h.972c3.889-15.747,14.387-22.163,35.771-22.163,22.553,0,31.301,6.61,33.245,24.885h1.166c1.75-9.137,3.889-13.609,8.943-17.691,5.832-4.666,14.97-7.193,26.44-7.193,15.747,0,26.245,4.083,31.3,12.248,2.333,3.888,4.86,15.164,4.86,22.552v77.959h-48.408v-59.102c0-10.304-3.111-14.581-10.305-14.581s-10.692,4.083-10.692,12.442v61.24h-48.408v-59.879c0-9.721-2.916-13.609-10.109-13.609-7.388,0-11.276,4.277-11.276,12.248v61.24h-48.408V20.802h44.909v18.275Z"/><path class="cls-3" d="m679.097,129.673h-48.408v-18.081h-.973c-5.832,15.942-13.414,20.608-32.467,20.608-15.747,0-26.829-4.277-33.05-12.831-7.776-10.693-11.471-26.44-11.471-48.992,0-21.191,4.083-34.994,12.831-43.937,6.61-6.61,16.137-9.526,30.329-9.526,21.385,0,28.772,5.055,33.827,22.552h.973v-18.664h48.408v108.871Zm-77.376-53.463c0,14.581,4.86,21.58,14.775,21.58,10.498,0,14.775-6.221,14.775-21.385,0-13.22-4.083-18.469-14.192-18.469-10.498,0-15.358,5.833-15.358,18.275Z"/><path class="cls-1" d="m743.836,114.703c0,10.693-9.137,17.497-23.329,17.497-14.581,0-23.329-6.804-23.329-17.691,0-10.499,9.137-17.303,23.135-17.303,14.581,0,23.523,6.61,23.523,17.497Z"/></svg>